<svg xmlns="http://www.w3.org/2000/svg" width="34.62" height="34.62" viewBox="0 0 34.62 34.62">
  <path id="Icon_awesome-arrow-circle-right" data-name="Icon awesome-arrow-circle-right" d="M17.872.563A17.31,17.31,0,1,1,.563,17.872,17.307,17.307,0,0,1,17.872.563ZM15.855,10.586l5.27,5.053H8.38A1.671,1.671,0,0,0,6.7,17.314v1.117A1.671,1.671,0,0,0,8.38,20.106H21.125l-5.27,5.053a1.677,1.677,0,0,0-.028,2.394l.768.761a1.668,1.668,0,0,0,2.366,0l9.262-9.255a1.668,1.668,0,0,0,0-2.366L18.961,7.424a1.668,1.668,0,0,0-2.366,0l-.768.761a1.685,1.685,0,0,0,.028,2.4Z" transform="translate(-0.563 -0.563)" fill="#ffa300"/>
</svg>
