<svg xmlns="http://www.w3.org/2000/svg" width="55" height="55" viewBox="0 0 55 55">
  <g id="Group_15" data-name="Group 15" transform="translate(-732 -4405)">
    <circle id="Ellipse_1" data-name="Ellipse 1" cx="27.5" cy="27.5" r="27.5" transform="translate(732 4405)" fill="#ffa300"/>
    <path id="Icon_awesome-instagram" data-name="Icon awesome-instagram" d="M10.832,7.516a5.555,5.555,0,1,0,5.555,5.555A5.546,5.546,0,0,0,10.832,7.516Zm0,9.166a3.611,3.611,0,1,1,3.611-3.611,3.618,3.618,0,0,1-3.611,3.611ZM17.91,7.288a1.3,1.3,0,1,1-1.3-1.3A1.293,1.293,0,0,1,17.91,7.288ZM21.589,8.6a6.412,6.412,0,0,0-1.75-4.54,6.454,6.454,0,0,0-4.54-1.75c-1.789-.1-7.15-.1-8.939,0a6.445,6.445,0,0,0-4.54,1.745A6.433,6.433,0,0,0,.071,8.6c-.1,1.789-.1,7.15,0,8.939a6.412,6.412,0,0,0,1.75,4.54,6.462,6.462,0,0,0,4.54,1.75c1.789.1,7.15.1,8.939,0a6.412,6.412,0,0,0,4.54-1.75,6.454,6.454,0,0,0,1.75-4.54c.1-1.789.1-7.145,0-8.934ZM19.278,19.457a3.656,3.656,0,0,1-2.059,2.059c-1.426.566-4.81.435-6.386.435s-4.965.126-6.386-.435a3.656,3.656,0,0,1-2.059-2.059c-.566-1.426-.435-4.81-.435-6.386s-.126-4.965.435-6.386A3.656,3.656,0,0,1,4.446,4.625c1.426-.566,4.81-.435,6.386-.435s4.965-.126,6.386.435a3.656,3.656,0,0,1,2.059,2.059c.566,1.426.435,4.81.435,6.386S19.844,18.035,19.278,19.457Z" transform="translate(748.67 4419.429)" fill="#201913"/>
  </g>
</svg>
