<svg id="Layer_2" data-name="Layer 2" xmlns="http://www.w3.org/2000/svg" width="158.923" height="53.066" viewBox="0 0 158.923 53.066">
  <g id="Layer_1" data-name="Layer 1">
    <path id="Path_6" data-name="Path 6" d="M72.952,34.33a36.9,36.9,0,0,1-1.734,4.582L18.083,8.087.21,18.461A37.1,37.1,0,0,1,4.282,5.84h0L5.64,4.977,13.721,0,35.457,12.6l33.3,19.305Z" transform="translate(-0.147)" fill="#fff"/>
    <path id="Path_7" data-name="Path 7" d="M69.171,77.108a37.489,37.489,0,0,1-2.745,4L26.02,57.576,2.142,71.247A37.027,37.027,0,0,1,0,62.5l13.574-8.015,8.084-4.974Z" transform="translate(0 -34.575)" fill="#fff"/>
    <path id="Path_8" data-name="Path 8" d="M80.461,121.7a36.935,36.935,0,0,1-3.807,3.36L52.809,111.183,30.245,124.335a37.491,37.491,0,0,1-6.135-6.386l16.256-9.885,8.084-4.974Z" transform="translate(-16.837 -71.993)" fill="#fff"/>
    <path id="Path_9" data-name="Path 9" d="M161.08,41.127a19.284,19.284,0,0,1-1.7,7.93l-33.3-19.305a19.348,19.348,0,0,1,34.991,11.375Z" transform="translate(-88.048 -15.216)" fill="#fff"/>
    <g id="Group" transform="translate(81.076 7.27)">
      <text id="Br" transform="translate(0 13)" fill="#fff" font-size="14" font-family="AvantGardeMdITCTTBold, AvantGardeMdITCTT"><tspan x="0" y="0">Br</tspan></text>
      <text id="o" transform="translate(13.846 14)" fill="#fff" font-size="15" font-family="AvantGardeMdITCTTBold, AvantGardeMdITCTT" letter-spacing="-0.01em"><tspan x="0" y="0">o</tspan></text>
      <text id="wn_Roof" data-name="wn Roof" transform="translate(22.847 14)" fill="#fff" font-size="15" font-family="AvantGardeMdITCTTBold, AvantGardeMdITCTT"><tspan x="0" y="0">wn Roof</tspan></text>
      <text id="S" transform="translate(0 32.624)" fill="#fff" font-size="15" font-family="AvantGardeMdITCTTBold, AvantGardeMdITCTT" letter-spacing="0.01em"><tspan x="0" y="0">S</tspan></text>
      <text id="tudios" transform="translate(7.939 32.624)" fill="#fff" font-size="15" font-family="AvantGardeMdITCTTBold, AvantGardeMdITCTT"><tspan x="0" y="0">tudios</tspan></text>
    </g>
  </g>
</svg>
